<?xml version="1.0" encoding="utf-8"?>
<!-- Generator: Adobe Illustrator 18.1.1, SVG Export Plug-In . SVG Version: 6.00 Build 0)  -->
<!DOCTYPE svg PUBLIC "-//W3C//DTD SVG 1.1//EN" "http://www.w3.org/Graphics/SVG/1.1/DTD/svg11.dtd">
<svg version="1.1" xmlns="http://www.w3.org/2000/svg" xmlns:xlink="http://www.w3.org/1999/xlink" x="0px" y="0px"
	 viewBox="0 0 104 104" style="enable-background:new 0 0 104 104;" xml:space="preserve">
<style type="text/css">
	.st0{opacity:0.3;}
	.st1{fill:#FFFFFF;}
	.st2{fill:#E4E4E4;}
	.st3{fill:#455A64;}
	.st4{opacity:0.6;fill:#FFFFFF;}
	.st5{opacity:0.3;fill:none;stroke:#CACACA;stroke-miterlimit:10;}
	.st6{fill:#B1B1B1;}
	.st7{fill:#009FE3;}
	.st8{fill:none;stroke:#3FA9F5;stroke-miterlimit:10;}
	.st9{fill:#222A33;}
	.st10{fill:#515150;}
	.st11{fill:#8AC43F;}
	.st12{fill-rule:evenodd;clip-rule:evenodd;fill:#FFFFFF;}
	.st13{fill:#00A5D6;}
	.st14{fill:#CACACA;}
	.st15{fill:none;stroke:#CACACA;stroke-miterlimit:10;}
	.st16{fill:none;stroke:#C90C0F;stroke-miterlimit:10;}
	.st17{fill:none;}
	.st18{fill:none;stroke:#CACACA;stroke-width:2;stroke-miterlimit:10;stroke-dasharray:6;}
	.st19{fill:#C90C0F;}
	.st20{opacity:0.8;fill:#FFFFFF;}
	.st21{fill:#0A0C1D;}
	.st22{fill:none;stroke:#979797;stroke-miterlimit:10;}
	.st23{fill:none;stroke:#FFFFFF;stroke-width:2;stroke-linecap:round;stroke-linejoin:round;stroke-miterlimit:10;}
	.st24{fill:#E10613;}
	.st25{fill:none;stroke:#FFFFFF;stroke-width:0.51;stroke-miterlimit:3.864;}
	.st26{fill:#A8218D;}
	.st27{fill:#0099C7;}
	.st28{fill:#283995;}
	.st29{fill:#007DA4;}
	.st30{fill:#42464F;}
	.st31{fill:#171F25;}
	.st32{fill:#FCFFFF;}
	.st33{clip-path:url(#SVGID_6_);fill:url(#SVGID_7_);}
	.st34{fill:#159232;}
	.st35{clip-path:url(#SVGID_9_);fill:url(#SVGID_10_);}
	.st36{clip-path:url(#SVGID_12_);fill:url(#SVGID_13_);}
	.st37{fill:#77777A;}
	.st38{fill:#231F20;}
	.st39{fill:#B4946E;}
	.st40{fill-rule:evenodd;clip-rule:evenodd;fill:#004676;}
	.st41{fill-rule:evenodd;clip-rule:evenodd;fill:#331B58;}
	.st42{fill-rule:evenodd;clip-rule:evenodd;fill:#C90C0F;}
	.st43{fill:#94C8EA;}
	.st44{fill:#32302D;}
	.st45{fill:#12A5DA;}
	.st46{fill:#595551;}
	.st47{fill:#C9C4C3;}
	.st48{fill:#8C8684;}
	.st49{display:none;}
	.st50{display:inline;}
	.st51{opacity:0.5;fill:#00FF00;}
</style>
<g id="Layer_3">
</g>
<g id="Layer_1">
	<g>
		<polygon class="st43" points="52,25.1 52.2,51.5 74.7,64.9 74.9,38.1 52,25.1 		"/>
		<polygon class="st44" points="74.9,64.3 52.1,51.2 52.1,51.3 29.3,64.4 52.1,77.5 52.1,77.4 74.9,64.3 		"/>
		<polygon class="st45" points="74.8,11.8 52,25 74.9,38.1 74.9,38 97.7,24.9 74.8,11.7 74.8,11.8 		"/>
		<polygon class="st46" points="29.3,-0.1 29.3,0 6.5,13.1 29.3,26.2 29.3,26.1 52.1,13 29.3,-0.1 		"/>
		<polygon class="st47" points="6.4,12.9 6.5,39.9 29.3,53.6 29.3,25.9 6.4,12.9 		"/>
		<polygon class="st48" points="29.4,90.6 51.9,104 52.1,77.2 29.3,64.2 29.4,90.6 		"/>
	</g>
</g>
<g id="Guide" class="st49">
</g>
</svg>
