<?xml version="1.0" encoding="utf-8"?>
<!-- Generator: Adobe Illustrator 18.1.1, SVG Export Plug-In . SVG Version: 6.00 Build 0)  -->
<!DOCTYPE svg PUBLIC "-//W3C//DTD SVG 1.1//EN" "http://www.w3.org/Graphics/SVG/1.1/DTD/svg11.dtd">
<svg version="1.1" xmlns="http://www.w3.org/2000/svg" xmlns:xlink="http://www.w3.org/1999/xlink" x="0px" y="0px"
	 viewBox="0 0 274 93" style="enable-background:new 0 0 274 93;" xml:space="preserve">
<style type="text/css">
	.st0{opacity:0.3;}
	.st1{fill:#FFFFFF;}
	.st2{fill:#E4E4E4;}
	.st3{fill:#455A64;}
	.st4{opacity:0.6;fill:#FFFFFF;}
	.st5{opacity:0.3;fill:none;stroke:#CACACA;stroke-miterlimit:10;}
	.st6{fill:#B1B1B1;}
	.st7{fill:#009FE3;}
	.st8{fill:none;stroke:#3FA9F5;stroke-miterlimit:10;}
	.st9{fill:#222A33;}
	.st10{fill:#515150;}
	.st11{fill:#8AC43F;}
	.st12{fill-rule:evenodd;clip-rule:evenodd;fill:#FFFFFF;}
	.st13{fill:#00A5D6;}
	.st14{fill:#CACACA;}
	.st15{fill:none;stroke:#CACACA;stroke-miterlimit:10;}
	.st16{fill:none;stroke:#C90C0F;stroke-miterlimit:10;}
	.st17{fill:none;}
	.st18{fill:none;stroke:#CACACA;stroke-width:2;stroke-miterlimit:10;stroke-dasharray:6;}
	.st19{fill:#C90C0F;}
	.st20{opacity:0.8;fill:#FFFFFF;}
	.st21{fill:#0A0C1D;}
	.st22{fill:none;stroke:#979797;stroke-miterlimit:10;}
	.st23{fill:none;stroke:#FFFFFF;stroke-width:2;stroke-linecap:round;stroke-linejoin:round;stroke-miterlimit:10;}
	.st24{fill:#E10613;}
	.st25{fill:none;stroke:#FFFFFF;stroke-width:0.51;stroke-miterlimit:3.864;}
	.st26{fill:#A8218D;}
	.st27{fill:#0099C7;}
	.st28{fill:#283995;}
	.st29{fill:#007DA4;}
	.st30{fill:#42464F;}
	.st31{fill:#171F25;}
	.st32{fill:#FCFFFF;}
	.st33{clip-path:url(#SVGID_6_);fill:url(#SVGID_7_);}
	.st34{fill:#159232;}
	.st35{clip-path:url(#SVGID_9_);fill:url(#SVGID_10_);}
	.st36{clip-path:url(#SVGID_12_);fill:url(#SVGID_13_);}
	.st37{fill:#77777A;}
	.st38{fill:#231F20;}
	.st39{fill:#B4946E;}
	.st40{fill-rule:evenodd;clip-rule:evenodd;fill:#004676;}
	.st41{fill-rule:evenodd;clip-rule:evenodd;fill:#331B58;}
	.st42{fill-rule:evenodd;clip-rule:evenodd;fill:#C90C0F;}
	.st43{fill:#94C8EA;}
	.st44{fill:#32302D;}
	.st45{fill:#12A5DA;}
	.st46{fill:#595551;}
	.st47{fill:#C9C4C3;}
	.st48{fill:#8C8684;}
	.st49{display:none;}
	.st50{display:inline;}
	.st51{opacity:0.5;fill:#00FF00;}
</style>
<g id="Layer_3">
</g>
<g id="Layer_1">
	<polygon class="st43" points="232.2,22.5 232.3,46 252.3,57.9 252.5,34.1 232.2,22.5 	"/>
	<polygon class="st44" points="252.6,57.4 232.2,45.7 232.2,45.8 211.9,57.5 232.3,69.1 232.3,69.1 252.6,57.4 	"/>
	<polygon class="st45" points="252.5,10.7 232.2,22.4 252.5,34 252.5,33.9 272.8,22.3 252.5,10.6 252.5,10.7 	"/>
	<polygon class="st46" points="211.9,0 211.9,0.1 191.6,11.8 211.9,23.4 211.9,23.4 232.2,11.7 211.9,0 	"/>
	<polygon class="st47" points="191.6,11.6 191.6,35.7 211.9,47.8 211.9,23.2 191.6,11.6 	"/>
	<polygon class="st48" points="212,80.8 232.1,92.7 232.2,68.9 211.9,57.3 212,80.8 	"/>
	<path class="st1" d="M2.9,39.3c0,0,2.6,2.5,6,2.5c1.8,0,3.5-0.9,3.5-2.9C12.3,34.7,1,35.4,1,28.1c0-4,3.4-6.9,8-6.9
		c4.7,0,7.1,2.6,7.1,2.6l-1.9,3.5c0,0-2.3-2.1-5.3-2.1c-2,0-3.6,1.2-3.6,2.9c0,4.2,11.2,3.2,11.2,10.8c0,3.8-2.9,7-7.9,7
		c-5.3,0-8.2-3.3-8.2-3.3L2.9,39.3L2.9,39.3z"/>
	<path class="st1" d="M31.7,21.1c7,0,12.3,5.3,12.3,12.2c0,7-5.3,12.5-12.3,12.5s-12.3-5.5-12.3-12.5C19.3,26.5,24.6,21.1,31.7,21.1
		 M31.7,41.9c4.4,0,7.9-3.6,7.9-8.5c0-4.7-3.5-8.2-7.9-8.2s-7.9,3.5-7.9,8.2C23.8,38.2,27.3,41.9,31.7,41.9"/>
	<path class="st1" d="M59.1,21.1c5.8,0,8.8,3.3,8.8,3.3l-2.1,3.2c0,0-2.7-2.5-6.5-2.5c-5,0-8,3.8-8,8.2c0,4.5,3.1,8.5,8,8.5
		c4.1,0,6.9-3,6.9-3l2.3,3.1c0,0-3.3,3.9-9.4,3.9c-7.3,0-12.3-5.4-12.3-12.4C46.8,26.5,52,21.1,59.1,21.1"/>
	<polygon class="st1" points="72.5,21.5 76.8,21.5 76.8,45.4 72.5,45.4 72.5,21.5 	"/>
	<path class="st1" d="M94.8,39.3h-8.4l-2,6.1h-4.5l8.4-23.9h4.5l8.4,23.9h-4.5L94.8,39.3L94.8,39.3z M90.6,25.7c0,0-0.5,2.4-1,3.7
		l-2.1,6.4h6.3l-2.1-6.4C91.1,28,90.6,25.7,90.6,25.7L90.6,25.7L90.6,25.7z"/>
	<path class="st1" d="M104.3,21.5h8.5c4.3,0,7.4,2.2,7.4,6.2c0,2.2-1.1,4.1-2.9,5.1v0.1c2.6,0.8,3.9,3.2,3.9,5.6
		c0,4.8-3.8,6.9-8.2,6.9h-8.6V21.5L104.3,21.5z M112.9,31.3c1.9,0,3-1.3,3-3.1c0-1.7-1-3-3-3h-4.1v6H112.9L112.9,31.3z M113.3,41.7
		c2.2,0,3.5-1.4,3.5-3.5c0-2-1.3-3.4-3.5-3.4h-4.6v6.9H113.3L113.3,41.7z"/>
	<polygon class="st1" points="125.9,21.5 130.3,21.5 130.3,41.7 140.6,41.7 140.6,45.4 125.9,45.4 125.9,21.5 	"/>
	<polygon class="st1" points="144.1,21.5 158.3,21.5 158.3,25.3 148.4,25.3 148.4,31.5 156.4,31.5 156.4,35.3 148.4,35.3 
		148.4,41.7 158.9,41.7 158.9,45.4 144.1,45.4 144.1,21.5 	"/>
	<path class="st1" d="M2.9,74.3c0,0,2.6,2.5,6,2.5c1.8,0,3.5-0.9,3.5-2.9C12.3,69.7,1,70.4,1,63.1c0-4,3.4-6.9,8-6.9
		c4.7,0,7.1,2.6,7.1,2.6l-1.9,3.5c0,0-2.3-2.1-5.3-2.1c-2,0-3.6,1.2-3.6,2.9c0,4.2,11.2,3.2,11.2,10.8c0,3.8-2.9,7-7.9,7
		c-5.3,0-8.2-3.3-8.2-3.3L2.9,74.3L2.9,74.3z"/>
	<path class="st1" d="M20.6,56.6H25v15.3c0,3.2,2.1,5,5.3,5c3.2,0,5.3-1.8,5.3-5V56.6h4.3v15.3c0,5.3-3.9,9-9.6,9
		c-5.8,0-9.7-3.6-9.7-9V56.6L20.6,56.6z"/>
	<path class="st1" d="M45.6,56.6h7.7c2.6,0,3.8,0.2,4.8,0.7c2.4,1.1,3.9,3.4,3.9,6.5c0,2.9-1.5,5.5-4,6.5v0.1c0,0,0.3,0.3,0.8,1.2
		l4.9,8.9h-4.8l-4.7-8.9H50v8.9h-4.3V56.6L45.6,56.6z M53.9,67.8c2.3,0,3.8-1.4,3.8-3.8c0-2.3-1-3.7-4.4-3.7H50v7.5H53.9L53.9,67.8z
		"/>
	<path class="st1" d="M64.5,56.6h4.7l5.2,15.6c0.5,1.4,0.9,3.5,0.9,3.5h0.1c0,0,0.4-2.1,0.9-3.5l5.3-15.6h4.6l-8.7,23.9h-4.3
		L64.5,56.6L64.5,56.6z"/>
	<polygon class="st1" points="89.3,56.6 103.6,56.6 103.6,60.3 93.6,60.3 93.6,66.6 101.6,66.6 101.6,70.3 93.6,70.3 93.6,76.7 
		104.1,76.7 104.1,80.5 89.3,80.5 89.3,56.6 	"/>
	<path class="st1" d="M113.6,70.5l-7.9-13.9h4.9l3.7,7c0.8,1.5,1.4,3.2,1.4,3.2h0.1c0,0,0.7-1.7,1.4-3.2l3.7-7h4.9l-7.9,13.9v10
		h-4.3V70.5L113.6,70.5z"/>
	<path class="st1" d="M139.1,56.2c7,0,12.3,5.3,12.3,12.2c0,7-5.3,12.5-12.3,12.5c-7,0-12.3-5.5-12.3-12.5
		C126.7,61.5,132,56.2,139.1,56.2 M139.1,76.9c4.4,0,7.9-3.6,7.9-8.5c0-4.7-3.5-8.2-7.9-8.2c-4.4,0-7.9,3.5-7.9,8.2
		C131.2,73.3,134.7,76.9,139.1,76.9"/>
	<path class="st1" d="M155.8,56.6h7.7c2.6,0,3.8,0.2,4.8,0.7c2.4,1.1,3.9,3.4,3.9,6.5c0,2.9-1.5,5.5-4,6.5v0.1c0,0,0.3,0.3,0.8,1.2
		l4.9,8.9h-4.8l-4.7-8.9h-4.2v8.9h-4.3V56.6L155.8,56.6z M164.1,67.8c2.3,0,3.8-1.4,3.8-3.8c0-2.3-1-3.7-4.4-3.7h-3.3v7.5H164.1
		L164.1,67.8z"/>
	<path class="st1" d="M178.5,74.3c0,0,2.6,2.5,6,2.5c1.8,0,3.5-0.9,3.5-2.9c0-4.3-11.3-3.5-11.3-10.9c0-4,3.4-6.9,8-6.9
		c4.7,0,7.1,2.6,7.1,2.6l-1.9,3.5c0,0-2.3-2.1-5.3-2.1c-2,0-3.6,1.2-3.6,2.9c0,4.2,11.2,3.2,11.2,10.8c0,3.8-2.9,7-7.9,7
		c-5.3,0-8.2-3.3-8.2-3.3L178.5,74.3L178.5,74.3z"/>
</g>
<g id="Guide" class="st49">
</g>
</svg>
