<?xml version="1.0" encoding="utf-8"?>
<!-- Generator: Adobe Illustrator 19.2.1, SVG Export Plug-In . SVG Version: 6.00 Build 0)  -->
<svg version="1.1" xmlns="http://www.w3.org/2000/svg" xmlns:xlink="http://www.w3.org/1999/xlink" x="0px" y="0px"
	 viewBox="0 0 23 24" style="enable-background:new 0 0 23 24;" xml:space="preserve">
<style type="text/css">
	.st0{opacity:0.3;}
	.st1{fill:#E4E4E4;}
	.st2{fill:#FFFFFF;}
	.st3{clip-path:url(#SVGID_16_);}
	.st4{clip-path:url(#SVGID_20_);}
	.st5{clip-path:url(#SVGID_26_);}
	.st6{fill:url(#SVGID_27_);}
	.st7{opacity:0.5;fill:#FFFFFF;}
	.st8{clip-path:url(#SVGID_33_);}
	.st9{fill:url(#SVGID_36_);}
	.st10{clip-path:url(#SVGID_38_);}
	.st11{fill:none;}
	.st12{fill:none;stroke:#FFFFFF;stroke-width:2;stroke-linecap:round;stroke-linejoin:round;stroke-miterlimit:10;}
	.st13{opacity:0.3;fill:none;stroke:#CACACA;stroke-miterlimit:10;}
	.st14{fill:#E6E6E6;}
	.st15{opacity:0.7;}
	.st16{fill:#979797;}
	.st17{fill:#00A5D6;}
	.st18{fill:#0A0C1D;}
	.st19{fill:#455A64;}
	.st20{fill:#2C2C2B;}
	.st21{fill:none;stroke:#979797;stroke-miterlimit:10;}
	.st22{opacity:0.8;fill:#FFFFFF;}
	.st23{opacity:0.9;fill:#00A5D6;}
	.st24{fill:#222A33;}
	.st25{opacity:0.9;fill:#455A64;}
	.st26{opacity:0.5;fill:none;stroke:#FFFFFF;stroke-miterlimit:10;}
	.st27{fill:#B1B1B1;}
	.st28{clip-path:url(#SVGID_62_);}
	.st29{fill:#00AEEF;}
	.st30{fill:url(#SVGID_65_);}
	.st31{fill:none;stroke:#3FA9F5;stroke-miterlimit:10;}
	.st32{fill:#CACACA;}
	.st33{fill:none;stroke:#CACACA;stroke-miterlimit:10;}
	.st34{fill:#515150;}
	.st35{clip-path:url(#SVGID_69_);}
	.st36{clip-path:url(#SVGID_71_);}
	.st37{clip-path:url(#SVGID_73_);}
	.st38{clip-path:url(#SVGID_77_);}
	.st39{clip-path:url(#SVGID_79_);}
	.st40{clip-path:url(#SVGID_81_);}
	.st41{fill:#E1003B;}
	.st42{fill-rule:evenodd;clip-rule:evenodd;fill:#E1003B;}
	.st43{fill:none;stroke:#E4E4E4;stroke-miterlimit:10;}
	.st44{clip-path:url(#SVGID_83_);}
	.st45{clip-path:url(#SVGID_85_);}
	.st46{clip-path:url(#SVGID_89_);}
	.st47{clip-path:url(#SVGID_91_);}
	.st48{clip-path:url(#SVGID_93_);}
	.st49{clip-path:url(#SVGID_95_);}
	.st50{clip-path:url(#SVGID_97_);}
	.st51{fill:#808080;}
	.st52{clip-path:url(#SVGID_101_);}
	.st53{opacity:0.9;fill:#222A33;}
	.st54{clip-path:url(#SVGID_105_);}
	.st55{clip-path:url(#SVGID_107_);}
	.st56{clip-path:url(#SVGID_109_);}
	.st57{clip-path:url(#SVGID_111_);}
	.st58{fill:#84C3E5;}
	.st59{fill:#2A2B2B;}
	.st60{fill:#00A7D9;}
	.st61{fill:#595551;}
	.st62{fill:#BDBAB8;}
	.st63{fill:#7F7C7B;}
	.st64{fill:#32302D;}
	.st65{opacity:0.6;fill:#FFFFFF;}
	.st66{fill:none;stroke:#CE181E;stroke-miterlimit:10;}
	.st67{fill:#CE181E;}
	.st68{fill-rule:evenodd;clip-rule:evenodd;fill:#FFFFFF;}
	.st69{fill:#8AC43F;}
	.st70{fill:none;stroke:#CACACA;stroke-width:2;stroke-miterlimit:10;stroke-dasharray:6;}
	.st71{fill:url(#SVGID_114_);}
	.st72{fill:url(#SVGID_115_);}
	.st73{fill:#EFEFEF;}
	.st74{fill:#E10613;}
	.st75{fill:none;stroke:#FFFFFF;stroke-width:0.51;stroke-miterlimit:3.864;}
	.st76{fill:#A8218D;}
	.st77{fill:#0099C7;}
	.st78{fill:#283995;}
	.st79{fill:#007DA4;}
	.st80{fill:#42464F;}
	.st81{fill:#171F25;}
	.st82{fill:#FCFFFF;}
	.st83{clip-path:url(#SVGID_123_);fill:url(#SVGID_124_);}
	.st84{fill:#159232;}
	.st85{clip-path:url(#SVGID_126_);fill:url(#SVGID_127_);}
	.st86{clip-path:url(#SVGID_129_);fill:url(#SVGID_130_);}
	.st87{fill:#77777A;}
	.st88{fill:#231F20;}
	.st89{fill:#B4946E;}
	.st90{fill-rule:evenodd;clip-rule:evenodd;fill:#004677;}
	.st91{fill-rule:evenodd;clip-rule:evenodd;fill:#2B165E;}
	.st92{fill:url(#SVGID_131_);}
	.st93{fill:url(#SVGID_132_);}
	.st94{fill:url(#SVGID_133_);}
	.st95{fill:url(#SVGID_134_);}
	.st96{fill:url(#SVGID_135_);}
	.st97{fill:url(#SVGID_136_);}
	.st98{fill:url(#SVGID_137_);}
	.st99{clip-path:url(#SVGID_145_);}
	.st100{fill:url(#SVGID_146_);}
	.st101{clip-path:url(#SVGID_148_);fill:url(#SVGID_149_);}
	.st102{clip-path:url(#SVGID_151_);fill:url(#SVGID_152_);}
	.st103{clip-path:url(#SVGID_154_);fill:url(#SVGID_155_);}
	.st104{display:none;}
	.st105{display:inline;}
	.st106{opacity:0.5;fill:#00FF00;}
</style>
<g id="Layer_3">
</g>
<g id="Layer_1">
	<g>
		<g>
			<path class="st2" d="M14.9,2.4h1.3v5.1c0,0.2,0,0.3,0.1,0.3c0.1,0.1,0.1,0.1,0.3,0.1c0.1,0,0.2,0,0.4-0.1
				c0.1-0.1,0.3-0.2,0.4-0.4v-5h1.3V9h-1.3V8.3c-0.2,0.3-0.5,0.5-0.7,0.6C16.3,9,16,9.1,15.8,9.1c-0.3,0-0.5-0.1-0.7-0.3
				c-0.2-0.2-0.2-0.5-0.2-0.9V2.4z M6.7,0l0.9,3.6h0.1L8.6,0h1.5L8.4,5.3V9H6.9V5.4L5.2,0H6.7z"/>
		</g>
		<path class="st2" d="M13.3,2.7c-0.3-0.3-0.8-0.5-1.3-0.5c-0.6,0-1.1,0.2-1.4,0.5C10.2,3,10,3.4,10,3.9v3.4c0,0.6,0.2,1,0.5,1.3
			c0.3,0.3,0.8,0.5,1.4,0.5c0.6,0,1-0.2,1.4-0.5c0.3-0.3,0.5-0.8,0.5-1.3V3.9C13.8,3.4,13.6,3,13.3,2.7z M12.5,7.4
			c0,0.2-0.1,0.3-0.2,0.4C12.2,8,12.1,8,11.9,8c-0.2,0-0.3,0-0.4-0.1c-0.1-0.1-0.1-0.2-0.1-0.4V3.8c0-0.1,0-0.3,0.1-0.3
			c0.1-0.1,0.2-0.1,0.4-0.1c0.2,0,0.3,0,0.4,0.1c0.1,0.1,0.2,0.2,0.2,0.3V7.4z"/>
		<g>
			<path class="st2" d="M18.7,16c-0.2,0-0.3,0-0.3,0.1c0,0.1-0.1,0.2-0.1,0.5v0.5h0.8v-0.5c0-0.3-0.1-0.5-0.1-0.5
				C18.9,16.1,18.8,16,18.7,16z"/>
			<path class="st2" d="M13.7,16.1c-0.1,0-0.1,0.1-0.2,0.1v4c0.1,0.1,0.2,0.1,0.2,0.2c0.1,0,0.2,0.1,0.2,0.1c0.2,0,0.2-0.1,0.2-0.1
				c0,0,0.1-0.1,0.1-0.4v-3.4c0-0.2,0-0.3-0.1-0.4C14.1,16,13.9,16,13.7,16.1z"/>
			<path class="st2" d="M22.1,13.4c0-1.6-1.4-2.9-3.1-2.9c-2.4-0.1-4.9-0.1-7.4-0.1c-2.5,0-5,0-7.4,0.1c-1.7,0-3.1,1.3-3.1,2.9
				C1,14.6,1,15.9,1,17.2c0,1.3,0,2.5,0.1,3.8c0,1.6,1.4,2.9,3.1,2.9C6.6,24,9.1,24,11.6,24c2.5,0,5,0,7.4-0.1
				c1.7,0,3.1-1.3,3.1-2.9c0.1-1.3,0.1-2.5,0.1-3.8C22.3,15.9,22.2,14.6,22.1,13.4z M5.8,21.5c0,0.1-0.1,0.1-0.1,0.1H4.2
				c-0.1,0-0.1-0.1-0.1-0.1V14H2.7c-0.1,0-0.1-0.1-0.1-0.1v-1.3c0-0.1,0.1-0.1,0.1-0.1h4.5c0.1,0,0.1,0.1,0.1,0.1v1.3
				c0,0.1-0.1,0.1-0.1,0.1H5.8V21.5z M11,21.5c0,0.1-0.1,0.1-0.1,0.1H9.5c-0.1,0-0.1-0.1-0.1-0.1v-0.4c-0.2,0.2-0.3,0.3-0.5,0.4
				c-0.3,0.2-0.6,0.2-0.8,0.2c-0.3,0-0.6-0.1-0.8-0.4c-0.2-0.2-0.3-0.5-0.3-1v-5.5c0-0.1,0.1-0.1,0.1-0.1h1.3c0.1,0,0.1,0.1,0.1,0.1
				V20c0,0.2,0,0.2,0,0.3c0,0,0,0,0.1,0c0,0,0.1,0,0.3-0.1c0.1-0.1,0.2-0.2,0.3-0.3v-5c0-0.1,0.1-0.1,0.1-0.1h1.3
				c0.1,0,0.1,0.1,0.1,0.1V21.5z M16,20.2c0,0.5-0.1,0.9-0.3,1.2c-0.2,0.3-0.6,0.4-1,0.4c-0.3,0-0.5-0.1-0.7-0.2
				c-0.1-0.1-0.2-0.1-0.3-0.2v0.2c0,0.1-0.1,0.1-0.1,0.1h-1.3c-0.1,0-0.1-0.1-0.1-0.1v-9c0-0.1,0.1-0.1,0.1-0.1h1.3
				c0.1,0,0.1,0.1,0.1,0.1v2.5c0.1-0.1,0.2-0.2,0.3-0.2c0.2-0.1,0.4-0.2,0.7-0.2c0.5,0,0.8,0.2,1.1,0.5c0.2,0.3,0.4,0.8,0.4,1.3
				V20.2z M20.7,18.4c0,0.1-0.1,0.1-0.1,0.1h-2.3v1.1c0,0.4,0.1,0.6,0.1,0.6c0,0.1,0.1,0.1,0.3,0.1c0.2,0,0.3,0,0.3-0.1
				c0,0,0.1-0.2,0.1-0.7v-0.5c0-0.1,0.1-0.1,0.1-0.1h1.3c0.1,0,0.1,0.1,0.1,0.1v0.5c0,0.7-0.2,1.3-0.5,1.6c-0.3,0.4-0.9,0.6-1.6,0.6
				c-0.6,0-1.1-0.2-1.5-0.6c-0.4-0.4-0.5-0.9-0.5-1.6v-3c0-0.6,0.2-1.1,0.6-1.5c0.4-0.4,0.9-0.6,1.5-0.6c0.6,0,1.1,0.2,1.5,0.5
				c0.3,0.4,0.5,0.9,0.5,1.5V18.4z"/>
		</g>
	</g>
</g>
<g id="Guide" class="st104">
</g>
</svg>
